<svg xmlns="http://www.w3.org/2000/svg" viewBox="0 0 216 216"><defs><style>.cls-1{fill:#434343;}.cls-2{fill:#7e7e7e;}</style></defs><title>L - 256 - D - Regular</title><g id="Layer_2" data-name="Layer 2"><g id="L_-_256" data-name="L - 256"><g id="L_-_256-2" data-name="L - 256"><g id="Ring"><path d="M36,108c0-42.75,29.25-72,72-72,21.11,0,34,2.27,48,16-16.3-20.44-35.55-32.87-63.59-32.87-48.95,0-88.77,39.94-88.87,89.07a104,104,0,0,0,177.53,73.34q3.68-3.67,6.93-7.64c-16.77,16.77-38.36,22.1-63.83,22.1C73.08,196,36,159.3,36,108Z"/><path class="cls-1" d="M180,103.52c-.06-1.18-.13-2.35-.23-3.52-3.79-46.89-37.7-83.54-85.5-83.54A91.21,91.21,0,0,0,28,45a105,105,0,0,1,8.54-9.66,102.89,102.89,0,0,1,145.36,0A101.93,101.93,0,0,1,212,107.9c0,48.58-39.4,88.1-87.83,88.1a87.67,87.67,0,0,1-69.95-34.88C68.16,175.48,86.44,180,108,180c42.12,0,71.9-30,72.11-72"/><path class="cls-2" d="M108,216A108,108,0,1,1,216,108,108.12,108.12,0,0,1,108,216ZM108,8A100,100,0,1,0,208,108,100.11,100.11,0,0,0,108,8Z"/><path class="cls-2" d="M108,184a76,76,0,1,1,76-76A76.08,76.08,0,0,1,108,184Zm0-144a68,68,0,1,0,68,68A68.07,68.07,0,0,0,108,40Z"/><path class="cls-2" d="M124,201.52c-50.73,0-92-42-92-93.52h8c0,47.16,37.68,85.52,84,85.52s84-38.36,84-85.52h8C216,159.57,174.73,201.52,124,201.52Z"/><path class="cls-2" d="M184,108.38h-8c0-47.16-37.68-85.52-84-85.52S8,61.22,8,108.38H0C0,56.81,41.27,14.86,92,14.86S184,56.81,184,108.38Z"/></g><path class="cls-2" d="M85.45,127.49c1,10,10.3,16.44,23.39,16.44,12.57,0,21.54-6.66,21.54-16.16,0-7.87-5.21-12.62-18.07-15.57l-9.09-2c-16.62-3.7-23.57-10.83-23.57-22.35,0-13.49,12.17-22.93,28.55-22.93s28.26,9.67,28.72,23.1H129c-.81-9.55-9.09-15.92-21-15.92-11.29,0-20.27,5.91-20.27,15.4,0,7.59,5.16,12.39,17.55,15.17l9.09,2.09c17.2,3.88,24.09,10.42,24.09,22,0,14.83-11.93,24.38-30.06,24.38-17.83,0-30.05-9.5-30.92-23.62Z"/></g></g></g></svg>