<svg xmlns="http://www.w3.org/2000/svg" viewBox="0 0 101.95 101.95"><defs><style>.cls-1{fill:#f7f7f7;}</style></defs><title>Asset 15</title><g id="Layer_2" data-name="Layer 2"><g id="M_-_128" data-name="M - 128"><g id="M_-_128-2" data-name="M - 128"><path class="cls-1" d="M14.91,87A51,51,0,1,1,87,87,51.07,51.07,0,0,1,14.91,87ZM82.8,19.16a45,45,0,1,0,0,63.64A45,45,0,0,0,82.8,19.16Z"/><path class="cls-1" d="M26.23,75.72a35,35,0,1,1,49.49,0A35,35,0,0,1,26.23,75.72ZM71.48,30.47a29,29,0,1,0,0,41A29,29,0,0,0,71.48,30.47Z"/><path class="cls-1" d="M25.29,88C8.53,71.21,9,43.51,26.23,26.23l4.24,4.24C15.53,45.41,15.11,69.3,29.54,83.73S70,99.86,84.92,84.92l4.24,4.24C71.88,106.44,42.06,104.74,25.29,88Z"/><path class="cls-1" d="M75.6,75.85l-4.24-4.24c14.94-14.94,15.36-38.84.93-53.26S31.85,2.22,16.91,17.16l-4.24-4.24C30-4.36,59.77-2.66,76.53,14.11S92.88,58.57,75.6,75.85Z"/><path class="cls-1" d="M40.83,60.47c.6,4.4,4.68,7.07,10.56,7.07,5.56,0,9.59-2.93,9.59-7,0-3.43-2.27-5.7-7.95-6.95l-4.54-1c-8.2-1.79-11.75-5.51-11.75-11.33,0-6.75,6-11.49,14.45-11.49,8.17,0,14.08,4.88,14.3,11.83H60.38c-.45-4.48-4-7.23-9.33-7.23-5.11,0-9.06,2.49-9.06,6.67,0,3.23,2.19,5.44,7.78,6.66l4.54,1C62.85,50.62,66.23,54,66.23,59.82c0,7.57-6,12.31-15.13,12.31-8.94,0-14.9-4.59-15.38-11.66Z"/></g></g></g></svg>